<?xml version="1.0" encoding="UTF-8" standalone="no"?>
<!-- Created with Inkscape (http://www.inkscape.org/) -->

<svg
   version="1.1"
   id="svg1979"
   width="880"
   height="880"
   viewBox="0 0 880 880"
   sodipodi:docname="crop-symbol-publicdomainvectors.org.svg"
   inkscape:version="1.2 (dc2aedaf03, 2022-05-15)"
   xmlns:inkscape="http://www.inkscape.org/namespaces/inkscape"
   xmlns:sodipodi="http://sodipodi.sourceforge.net/DTD/sodipodi-0.dtd"
   xmlns="http://www.w3.org/2000/svg"
   xmlns:svg="http://www.w3.org/2000/svg">
  <defs
     id="defs1983">
    <clipPath
       clipPathUnits="userSpaceOnUse"
       id="clipPath1997">
      <path
         d="M 0,660 H 660 V 0 H 0 Z"
         id="path1995" />
    </clipPath>
  </defs>
  <sodipodi:namedview
     id="namedview1981"
     pagecolor="#ffffff"
     bordercolor="#000000"
     borderopacity="0.25"
     inkscape:showpageshadow="2"
     inkscape:pageopacity="0.0"
     inkscape:pagecheckerboard="0"
     inkscape:deskcolor="#d1d1d1"
     showgrid="false"
     inkscape:zoom="0.95113636"
     inkscape:cx="402.15054"
     inkscape:cy="440.52569"
     inkscape:window-width="1920"
     inkscape:window-height="1017"
     inkscape:window-x="-8"
     inkscape:window-y="-8"
     inkscape:window-maximized="1"
     inkscape:current-layer="g1987">
    <inkscape:page
       x="0"
       y="0"
       id="page1985"
       width="880"
       height="880" />
  </sodipodi:namedview>
  <g
     id="g1987"
     inkscape:groupmode="layer"
     inkscape:label="Page 1"
     transform="matrix(1.3333333,0,0,-1.3333333,0,880)">
    <path
       d="M 0,0 H 660 V 660 H 0 Z"
       style="fill:#463d3b;fill-opacity:1;fill-rule:nonzero;stroke:none"
       id="path1989" />
    <g
       id="g1991">
      <g
         id="g1993"
         clip-path="url(#clipPath1997)">
        <g
           id="g1999"
           transform="translate(410.3174,428.498)">
          <path
             d="m 0,0 c 11.586,0 20.979,-9.391 20.979,-20.974 0,-11.589 -9.393,-20.98 -20.979,-20.98 h -114.998 c -11.585,0 -20.979,9.391 -20.979,20.98 0,11.583 9.394,20.974 20.979,20.974 z"
             style="fill:#f28f62;fill-opacity:1;fill-rule:evenodd;stroke:none"
             id="path2001" />
        </g>
        <g
           id="g2003"
           transform="translate(432.2734,500.8325)">
          <path
             d="m 0,0 c 9.864,-6.017 12.98,-18.895 6.963,-28.759 -6.017,-9.867 -18.896,-12.985 -28.759,-6.966 l -43.976,26.836 c -9.867,6.019 -12.985,18.895 -6.965,28.762 6.018,9.864 18.895,12.982 28.762,6.965 z"
             style="fill:#f28f62;fill-opacity:1;fill-rule:evenodd;stroke:none"
             id="path2005" />
        </g>
        <g
           id="g2007"
           transform="translate(411.749,453.4258)">
          <path
             d="M 0,0 C 11.449,-1.631 19.408,-12.232 17.779,-23.682 16.15,-35.13 5.549,-43.091 -5.9,-41.462 l -70.186,10.055 c -11.449,1.629 -19.41,12.232 -17.781,23.681 1.629,11.449 12.229,19.41 23.681,17.781 z"
             style="fill:#f28f62;fill-opacity:1;fill-rule:evenodd;stroke:none"
             id="path2009" />
        </g>
        <g
           id="g2011"
           transform="translate(413.8848,483.4111)">
          <path
             d="M 0,0 C 11.449,-1.629 19.413,-12.232 17.784,-23.682 16.152,-35.131 5.549,-43.092 -5.9,-41.463 l -62.332,8.931 c -11.448,1.629 -19.409,12.232 -17.78,23.684 1.629,11.449 12.23,19.408 23.681,17.778 z"
             style="fill:#f28f62;fill-opacity:1;fill-rule:evenodd;stroke:none"
             id="path2013" />
        </g>
        <g
           id="g2015"
           transform="translate(207.4385,272.2295)">
          <path
             d="M 0,0 H 68.516 V -127.195 H 0 c -34.978,0 -63.598,28.62 -63.598,63.6 C -63.598,-28.617 -34.978,0 0,0"
             style="fill:#f28f62;fill-opacity:1;fill-rule:evenodd;stroke:none"
             id="path2017" />
        </g>
        <path
           d="M 0,249.743 H 191.627 V 166.82 H 0 Z"
           style="fill:#f28f62;fill-opacity:1;fill-rule:evenodd;stroke:none"
           id="path2019" />
        <g
           id="g2021"
           transform="translate(210.1763,237.8389)">
          <path
             d="m 0,0 c -2.487,-11.268 -13.642,-18.386 -24.91,-15.898 -11.267,2.489 -18.383,13.641 -15.896,24.912 l 10.542,47.784 c 0.923,4.183 3.043,7.793 5.916,10.555 l -0.016,0.017 13.913,13.355 3.248,9.745 c 3.62,10.953 15.433,16.894 26.386,13.275 10.95,-3.621 16.894,-15.434 13.274,-26.387 L 27.919,63.751 C 26.968,60.185 25.065,56.823 22.21,54.08 L 9.168,41.56 Z"
             style="fill:#f28f62;fill-opacity:1;fill-rule:evenodd;stroke:none"
             id="path2023" />
        </g>
        <g
           id="g2025"
           transform="translate(252.394,230.2891)">
          <path
             d="m 0,0 c -11.584,0 -20.977,9.394 -20.977,20.977 0,11.583 9.393,20.977 20.977,20.977 h 115 c 11.585,0 20.976,-9.394 20.976,-20.977 C 135.976,9.394 126.585,0 115,0 Z"
             style="fill:#f28f62;fill-opacity:1;fill-rule:evenodd;stroke:none"
             id="path2027" />
        </g>
        <g
           id="g2029"
           transform="translate(230.4399,157.9541)">
          <path
             d="m 0,0 c -9.864,6.02 -12.982,18.895 -6.963,28.76 6.019,9.867 18.895,12.985 28.762,6.966 L 65.77,8.893 c 9.866,-6.02 12.984,-18.896 6.965,-28.763 -6.019,-9.866 -18.895,-12.985 -28.762,-6.966 z"
             style="fill:#f5a683;fill-opacity:1;fill-rule:evenodd;stroke:none"
             id="path2031" />
        </g>
        <g
           id="g2033"
           transform="translate(250.9644,205.3643)">
          <path
             d="m 0,0 c -11.449,1.626 -19.41,12.232 -17.781,23.681 1.629,11.449 12.23,19.41 23.678,17.779 L 76.083,31.404 C 87.533,29.775 95.494,19.172 93.865,7.723 92.236,-3.727 81.634,-11.688 70.186,-10.059 Z"
             style="fill:#f5a683;fill-opacity:1;fill-rule:evenodd;stroke:none"
             id="path2035" />
        </g>
        <g
           id="g2037"
           transform="translate(248.8257,175.3789)">
          <path
             d="M 0,0 C -11.449,1.629 -19.41,12.23 -17.781,23.679 -16.152,35.128 -5.548,43.092 5.9,41.46 L 68.231,32.529 C 79.68,30.9 87.641,20.297 86.012,8.848 84.383,-2.602 73.783,-10.563 62.333,-8.934 Z"
             style="fill:#f5a683;fill-opacity:1;fill-rule:evenodd;stroke:none"
             id="path2039" />
        </g>
        <g
           id="g2041"
           transform="translate(455.2725,386.5596)">
          <path
             d="M 0,0 H -68.516 V 127.193 H 0 c 34.979,0 63.598,-28.62 63.598,-63.598 C 63.598,28.618 34.979,0 0,0"
             style="fill:#f28f62;fill-opacity:1;fill-rule:evenodd;stroke:none"
             id="path2043" />
        </g>
        <path
           d="M 662.712,409.044 H 471.084 v 82.925 h 191.628 z"
           style="fill:#f28f62;fill-opacity:1;fill-rule:evenodd;stroke:none"
           id="path2045" />
        <g
           id="g2047"
           transform="translate(452.5342,420.9482)">
          <path
             d="M 0,0 C 2.487,11.271 13.642,18.389 24.91,15.899 36.178,13.409 43.296,2.254 40.807,-9.014 L 30.268,-56.798 c -0.926,-4.183 -3.044,-7.793 -5.919,-10.552 l 0.018,-0.018 -13.916,-13.357 -3.247,-9.745 c -3.62,-10.95 -15.433,-16.894 -26.384,-13.274 -10.952,3.619 -16.894,15.435 -13.274,26.386 l 4.535,13.608 c 0.951,3.567 2.855,6.926 5.709,9.67 l 13.042,12.521 z"
             style="fill:#f28f62;fill-opacity:1;fill-rule:evenodd;stroke:none"
             id="path2049" />
        </g>
        <path
           d="M 87.808,258.809 H 138.31 V 157.756 H 87.808 Z"
           style="fill:#f06c2c;fill-opacity:1;fill-rule:evenodd;stroke:none"
           id="path2051" />
        <g
           id="g2053"
           transform="translate(73.4141,143.3613)">
          <path
             d="M 0,0 H -73.414 V 129.841 H 0 c 7.917,0 14.394,-6.48 14.394,-14.394 V 14.395 C 14.394,6.477 7.917,0 0,0"
             style="fill:#db5b1d;fill-opacity:1;fill-rule:evenodd;stroke:none"
             id="path2055" />
        </g>
        <path
           d="M 574.282,501.034 H 523.78 V 399.979 h 50.502 z"
           style="fill:#f06c2c;fill-opacity:1;fill-rule:evenodd;stroke:none"
           id="path2057" />
        <g
           id="g2059"
           transform="translate(588.6738,385.5874)">
          <path
             d="M 0,0 H 74.038 V 129.838 H 0 c -7.917,0 -14.392,-6.474 -14.392,-14.391 V 14.392 C -14.392,6.475 -7.917,0 0,0"
             style="fill:#db5b1d;fill-opacity:1;fill-rule:evenodd;stroke:none"
             id="path2061" />
        </g>
        <g
           id="g2063"
           transform="translate(287.6694,279.9717)">
          <path
             d="m 0,0 h -34.153 c -2.074,0 -3.755,1.678 -3.755,3.749 v 25.579 h 7.507 V 7.503 H 0 Z M 125.28,29.328 V 3.749 C 125.28,1.678 123.599,0 121.525,0 H 87.373 v 7.503 h 30.403 V 29.328 Z M 87.373,98.847 h 34.152 c 2.074,0 3.755,-1.681 3.755,-3.755 V 69.516 h -7.504 V 91.341 H 87.373 Z m -121.526,0 H 0 V 91.341 H -30.401 V 69.516 h -7.507 v 25.576 c 0,2.074 1.681,3.755 3.755,3.755"
             style="fill:#948681;fill-opacity:1;fill-rule:evenodd;stroke:none"
             id="path2065" />
        </g>
      </g>
    </g>
  </g>
</svg>
